# xmcd CD database file
#
# Track frame offsets:
#	180
#	16840
#	33397
#	50752
#	77335
#	97900
#	116257
#	136800
#	157012
#	179442
#	199632
#	231062
#	262580
#
# Disc length: 3735 seconds
#
# Revision: 0
# Processed by: cddbd v1.5.1PL0 Copyright (c) Steve Scherf et al.
# Submitted via: NeoAudio 9.9.9
#
DISCID=930e950d
DTITLE=Varios - Red Rooster Club - Live
DYEAR=1900
DGENRE=Blues
TTITLE0=Chester Arthur Burnett - Who Been Talking
TTITLE1=Lonnie Brooks - Come And Go
TTITLE2=Norman Whitfield - Barret Strong - Can't Get Next To You Baby
TTITLE3=Bob Dylan - Seven Days
TTITLE4=Freddie King - Same Old Blues
TTITLE5=Temtations - The Way You Do
TTITLE6=Eelco Gelling - Harry Muskee - Nighttrain
TTITLE7=John Hiatt - Alone In The Dark
TTITLE8=Allen Toussaint - Get Out Of My Live Woman
TTITLE9=Elmore James - Talk To Me Baby
TTITLE10=Traditional - Worried Life Blues
TTITLE11=Willie Dixon - I'm Ready
TTITLE12=Cesar Nosas - I Can't Understand
EXTD=
EXTT0=
EXTT1=
EXTT2=
EXTT3=
EXTT4=
EXTT5=
EXTT6=
EXTT7=
EXTT8=
EXTT9=
EXTT10=
EXTT11=
EXTT12=
PLAYORDER=
